<svg xmlns="http://www.w3.org/2000/svg" xmlns:xlink="http://www.w3.org/1999/xlink" width="28" height="28" viewBox="0 0 28 28">
    <defs>
        <path id="a" d="M14.846 16.685l1.611-.641-.005-8.012-5.407-2.147L5.63 8.04l.006 8.012 1.65.655v-2.195a.65.65 0 0 1 .415-.594l3.08-1.227a.8.8 0 0 1 .57 0l3.08 1.226c.248.1.414.338.414.595v2.173zM11 24c-.29 0-.577-.053-.828-.152l-8.965-3.57C.485 19.99 0 19.295 0 18.548V5.452c0-.746.485-1.442 1.206-1.73L10.17.152a2.33 2.33 0 0 1 1.659 0l8.964 3.57c.722.288 1.207.983 1.207 1.73v13.096c0 .747-.485 1.442-1.207 1.73l-8.964 3.57c-.252.1-.538.152-.83.152zm0-22.111a.264.264 0 0 0-.071.008L1.967 5.465l.01 13.083 8.954 3.556a.91.91 0 0 0 .14-.001l8.962-3.569-.01-13.082-8.954-3.556a.249.249 0 0 0-.068-.007zm.035 18.26a1.18 1.18 0 0 1-.418-.075l-6.347-2.52a.944.944 0 0 1-.609-.871L3.654 7.41c0-.381.24-.725.609-.872l6.351-2.53a1.238 1.238 0 0 1 .817-.016l.042.016 6.346 2.52c.368.147.608.491.609.872l.006 9.271c0 .382-.24.726-.608.873l-6.35 2.528a1.27 1.27 0 0 1-.44.075zm1.71-12.073a.35.35 0 0 1 .223.32v2.416a.35.35 0 0 1-.223.32l-1.654.658a.426.426 0 0 1-.306 0l-1.655-.658a.35.35 0 0 1-.223-.32V8.395a.35.35 0 0 1 .223-.32l1.655-.658a.43.43 0 0 1 .306 0l1.654.659z"/>
    </defs>
    <g fill="none" fill-rule="evenodd" transform="translate(3 2)">
        <mask id="b" fill="#fff">
            <use xlink:href="#a"/>
        </mask>
        <use fill="#DF6E22" fill-rule="nonzero" xlink:href="#a"/>
        <g fill="#AE2B26" mask="url(#b)">
            <path d="M-9-8h39v40H-9z"/>
        </g>
    </g>
</svg>
