<svg xmlns="http://www.w3.org/2000/svg" xmlns:xlink="http://www.w3.org/1999/xlink" width="190" height="24" viewBox="0 0 190 24">
    <defs>
        <path id="a" d="M0 24h191V0H0z"/>
    </defs>
    <g fill="none" fill-rule="evenodd" transform="translate(-1)">
        <mask id="b" fill="#fff">
            <use xlink:href="#a"/>
        </mask>
        <path fill="#FFF" d="M0 2.183h20.797L6.855 7.905l-1.75.719v7.726l1.75.72 1.257.514v-1.877l-1.258-.515v-5.41h.001L10.4 8.328l3.544 1.454v5.41l-5.838 2.396-2.378.976L0 20.914V2.184zm12.685 5.205l8.112-3.329v18.733H0l15.693-6.442V8.624l-3.008-1.236zm20 3.088c-1.08 1.057-2.392 1.478-3.84 1.478-3.758 0-5.22-2.343-5.234-4.917-.014-2.437 1.64-5.024 5.233-5.024 1.381 0 2.624.476 3.703 1.517L30.88 5.155c-.683-.65-1.393-.825-2.036-.825-1.843 0-2.568 1.49-2.555 2.72.013 1.234.67 2.628 2.555 2.628a3.32 3.32 0 0 0 2.255-.962l1.586 1.76zm1.106 1.233V2.23h2.692v9.48h-2.692zm9.1-6.825l-1.23 3.02h2.447l-1.216-3.02zm2.132 5.267h-4.277l-.63 1.558h-2.869l4.291-9.479h2.734l4.275 9.479H45.65l-.627-1.558zm7.16-4.672l2.063-3.249h3.047v.122L53.495 7.93v3.779h-2.706V7.93l-3.634-5.592V2.23h3.046l1.983 3.25zM62.24 4.29c-1.544 0-2.609 1.11-2.609 2.68 0 1.585 1.08 2.68 2.609 2.68 1.586 0 2.61-1.107 2.61-2.68 0-1.624-1.024-2.68-2.61-2.68zm0 7.65c-3.128 0-5.314-1.802-5.314-4.97C56.925 3.855 59.111 2 62.239 2c3.144 0 5.317 1.816 5.317 4.97 0 3.167-2.173 4.968-5.317 4.968zm-30.343 9.683c-.943.923-2.162 1.35-3.448 1.35-3.33 0-4.825-2.272-4.838-4.664-.013-2.39 1.56-4.768 4.838-4.768 1.233 0 2.426.454 3.357 1.376l-.983.936c-.655-.637-1.52-.936-2.374-.936-2.335 0-3.397 1.703-3.383 3.379.013 1.664 1.01 3.314 3.383 3.314.853 0 1.797-.35 2.44-.987l1.008 1zm5.391.026c2.282 0 3.24-1.598 3.24-3.34 0-1.675-.97-3.417-3.214-3.455-2.124 0-3.265 1.467-3.265 3.455.025 1.611.971 3.34 3.24 3.34zm4.695-3.365c0 2.455-1.509 4.704-4.695 4.704-3.186 0-4.696-2.3-4.696-4.693 0-2.766 1.955-4.766 4.722-4.766 3.135.012 4.669 2.3 4.669 4.755zm9.73-2.455l-3.12 4.3h-.316l-3.082-4.3v6.977h-1.468V13.71h1.705l3.029 4.263 3.016-4.263h1.705v9.096h-1.47v-6.977zm3.776 6.963v-9.096h1.456v9.096h-1.456zm11.488-1.17c-.945.924-2.163 1.352-3.45 1.352-3.33 0-4.825-2.273-4.837-4.665-.013-2.39 1.56-4.768 4.837-4.768 1.235 0 2.428.454 3.359 1.376l-.984.936c-.657-.637-1.522-.936-2.375-.936-2.333 0-3.395 1.703-3.383 3.379.015 1.664 1.011 3.314 3.383 3.314.853 0 1.798-.35 2.44-.987l1.01 1zm6.898-5.911c-.433-.624-1.311-1.001-2.269-1.015-1.232 0-2.124.507-2.124 1.38 0 .883 1.023 1.13 2.23 1.299 1.887.259 3.684.78 3.684 2.819C75.38 22.233 73.507 23 71.59 23c-1.756 0-3.107-.533-3.947-2.066l1.104-.729c.654 1.106 1.796 1.496 2.857 1.496 1.102 0 2.322-.365 2.322-1.508 0-.988-1.063-1.326-2.348-1.496-1.822-.246-3.554-.7-3.554-2.65-.012-1.884 1.89-2.612 3.542-2.612 1.323 0 2.647.314 3.421 1.535l-1.114.74zM95.5 24h1.005V0H95.5zM176.251 6.235l-.224 1.256c-.915.022-1.864.339-1.864 1.117 0 .734.816.844 1.965.954 2.3.257 4.58 1.266 4.58 3.724 0 3.338-3.115 4.714-6.508 4.714-2.262 0-4.005-.495-5.396-2.256l2.43-2.293c1.056 1.229 2.447 1.449 3.54 1.449 1.299 0 2.263-.477 2.263-1.247 0-.569-.686-.936-1.984-1.064-2.503-.239-4.598-.9-4.598-3.45 0-3.249 3.123-4.575 6.1-4.602l-.304 1.698.303-1.698h3.188l-.526 2.953h-3.188l.223-1.255zm-54.801 4.868h2.633c2.17-.129 2.614-3.284.556-3.284h-2.633l-.556 3.284zm-.556 3.063l-.612 3.467h-3.671l2.28-12.84h6.304c3.06 0 4.469 1.779 4.469 3.925 0 2.917-2.17 5.412-6.137 5.448h-2.633zm19.468-9.373l-1.724 9.758h6.211l-.556 3.082h-9.883l2.28-12.84h3.672zm24.234.018l-1.28 7.172c-.649 3.798-2.948 5.889-6.99 5.889-3.8 0-5.933-2-5.228-5.925l1.26-7.136h3.653l-1.26 7.136c-.372 2.017.463 2.861 1.946 2.861 1.483 0 2.633-.88 2.967-2.825l1.28-7.172h3.652zm19.525-.27L184.568 2h3.21l-.448 2.54h2.665l-.526 2.944h-2.664l-.448 2.56h-3.209l.448-2.56h-2.646l.525-2.944h2.646z" mask="url(#b)"/>
    </g>
</svg>
