<svg xmlns="http://www.w3.org/2000/svg" xmlns:xlink="http://www.w3.org/1999/xlink" width="28" height="28" viewBox="0 0 28 28">
    <defs>
        <path id="a" d="M11.946 8.533V5.655c0-3.118 2.68-5.655 5.973-5.655 3.294 0 5.973 2.537 5.973 5.655V8.09c0 .52-.446.943-.995.943-.55 0-.996-.422-.996-.943V5.655c0-2.079-1.786-3.77-3.982-3.77s-3.982 1.691-3.982 3.77v2.878h1.775c.943 0 1.354.855 1.354 1.505v9.685c0 .65-.429 1.255-1.067 1.505l-6.742 2.64a2.01 2.01 0 0 1-.724.132c-.252 0-.501-.045-.721-.131l-6.744-2.64C.429 20.979 0 20.373 0 19.723v-9.685c0-.65.371-1.504 1.42-1.504l10.526-.001zM1.706 19.585l6.827 2.556 6.826-2.556V10.24H1.707v9.346zm8.533-5.11c0 .576-.296 1.083-.746 1.385v2.49c0 .52-.43.942-.96.942a.951.951 0 0 1-.96-.942v-2.49a1.665 1.665 0 0 1-.747-1.385c0-.925.764-1.676 1.707-1.676.942 0 1.706.75 1.706 1.676z"/>
    </defs>
    <g fill="none" fill-rule="evenodd" transform="translate(4 2)">
        <mask id="b" fill="#fff">
            <use xlink:href="#a"/>
        </mask>
        <use fill="#DF6E22" fill-rule="nonzero" xlink:href="#a"/>
        <g fill="#AE2B26" mask="url(#b)">
            <path d="M-10-8h39v40h-39z"/>
        </g>
    </g>
</svg>
