<svg xmlns="http://www.w3.org/2000/svg" xmlns:xlink="http://www.w3.org/1999/xlink" width="28" height="28" viewBox="0 0 28 28">
    <defs>
        <path id="a" d="M20.285 6.762l-1.556 1.134c.074.205.113.424.113.652v5.902c0 1.128-.973 2.046-2.169 2.046h-4.602v5.27l8.222-3.232-.008-11.772zm-.962-1.686l-8.11-3.18a.255.255 0 0 0-.07-.007.27.27 0 0 0-.072.008L1.992 5.465l.01 12.24 2.32-1.692a1.998 1.998 0 0 1-.77-1.563V8.548c0-1.128.972-2.046 2.168-2.046h10.953c.204 0 .402.027.589.077l2.06-1.503zM3.38 19.088l6.834 2.68v-5.272h-3.28L3.38 19.088zM15.208 8.076H5.72c-.27 0-.5.216-.5.472v5.902c0 .256.23.472.5.472h.099l9.39-6.846zm1.966.954l-8.081 5.892h7.58c.272 0 .501-.216.501-.472V9.03zM11.143 24c-.295 0-.584-.053-.838-.152l-9.082-3.57C.49 19.99 0 19.295 0 18.548V5.452c0-.746.49-1.442 1.221-1.73l9.082-3.57a2.39 2.39 0 0 1 1.68 0l9.08 3.57c.731.288 1.223.983 1.223 1.73v13.096c0 .747-.492 1.442-1.223 1.73l-9.08 3.57a2.33 2.33 0 0 1-.84.152z"/>
    </defs>
    <g fill="none" fill-rule="evenodd" transform="translate(3 2)">
        <mask id="b" fill="#fff">
            <use xlink:href="#a"/>
        </mask>
        <use fill="#DF6E22" fill-rule="nonzero" xlink:href="#a"/>
        <g fill="#AE2B26" mask="url(#b)">
            <path d="M-9-8h39v40H-9z"/>
        </g>
    </g>
</svg>
