<svg xmlns="http://www.w3.org/2000/svg" width="54" height="12" viewBox="0 0 54 12">
    <path fill="#FFF" fill-rule="evenodd" d="M43.887 3.176l-.165.942c-.674.016-1.372.254-1.372.838 0 .55.6.633 1.446.716 1.692.192 3.37.949 3.37 2.792 0 2.504-2.292 3.536-4.789 3.536-1.664 0-2.947-.371-3.97-1.692l1.787-1.72c.778.922 1.801 1.087 2.606 1.087.955 0 1.665-.358 1.665-.936 0-.426-.505-.701-1.46-.797-1.842-.18-3.384-.675-3.384-2.587 0-2.437 2.299-3.432 4.489-3.452l-.223 1.273.223-1.273h2.346l-.388 2.215h-2.346l.165-.942zM3.56 6.827h1.937c1.597-.096 1.924-2.463.41-2.463H3.97l-.409 2.463zm-.41 2.298l-.45 2.6H0l1.678-9.63h4.64c2.25 0 3.287 1.334 3.287 2.944 0 2.187-1.596 4.058-4.516 4.086H3.152zm14.326-7.03L16.21 9.412h4.57l-.409 2.312h-7.272l1.678-9.63h2.701zm17.833.013l-.941 5.38c-.478 2.847-2.17 4.416-5.144 4.416-2.797 0-4.366-1.5-3.848-4.444l.928-5.352h2.688l-.928 5.352c-.273 1.513.341 2.146 1.433 2.146 1.091 0 1.937-.66 2.183-2.119l.941-5.379h2.688zm14.368-.203L50.007 0h2.361l-.329 1.905H54l-.387 2.208h-1.96l-.33 1.92h-2.361l.33-1.92h-1.947l.386-2.208h1.947z"/>
</svg>
